<svg xmlns="http://www.w3.org/2000/svg" width="64" height="64" viewBox="0 0 64 64">
  <title>Wisp Everyday: cool</title>
  <defs><linearGradient id="body" x1="0" y1="0" x2="0" y2="1"><stop stop-color="#eee5ff"/><stop offset="1" stop-color="#a48ae4"/></linearGradient></defs>
  <path d="M11 52V31C11 14 25 7 35 13c4-7 9-8 14-7-5 4-7 7-6 12 8 6 10 14 10 34l-10-5-11 6-11-6z" fill="url(#body)" stroke="#30274f" stroke-width="2.5" stroke-linejoin="round"/>
  <g fill="none" stroke="#30274f" stroke-width="2.7" stroke-linecap="round" stroke-linejoin="round"><path d="M14 25h14l-1 9H17zM36 25h14l-3 9H37z" fill="#30274f"/><path d="M28 28h8M12 24l3 3m34 0 3-3M25 40q8 5 15-1"/><path d="m19 28 4 3m16-3 4 3" stroke="#8ce8ef" stroke-width="2"/></g>
</svg>
