<svg xmlns="http://www.w3.org/2000/svg" width="64" height="64" viewBox="0 0 64 64">
  <title>Wisp Everyday: facepalm</title>
  <defs><linearGradient id="body" x1="0" y1="0" x2="0" y2="1"><stop stop-color="#eee5ff"/><stop offset="1" stop-color="#a48ae4"/></linearGradient></defs>
  <path d="M11 52V31C11 14 25 7 35 13c4-7 9-8 14-7-5 4-7 7-6 12 8 6 10 14 10 34l-10-5-11 6-11-6z" fill="url(#body)" stroke="#30274f" stroke-width="2.5" stroke-linejoin="round"/>
  <g fill="none" stroke="#30274f" stroke-width="2.7" stroke-linecap="round" stroke-linejoin="round"><path d="M18 29h8M28 40h9"/><path d="m39 48-8-15-7-4c-3-2-1-6 2-4l7 3-5-11c-2-4 3-6 5-2l5 10-2-12c-1-4 4-5 5-1l2 12 1-8c0-4 5-3 5 0v18c0 5-3 9-5 11" fill="#cab6f5"/><path d="m36 31 5 9" stroke-width="2"/></g>
</svg>
